<svg width="28" height="28" viewBox="0 0 28 28" fill="none" xmlns="http://www.w3.org/2000/svg">
<g clip-path="url(#clip0_4112_36300)">
<path d="M26.7273 0H1.27273C0.569819 0 0 0.569819 0 1.27273V26.7273C0 27.4302 0.569819 28 1.27273 28H26.7273C27.4302 28 28 27.4302 28 26.7273V1.27273C28 0.569819 27.4302 0 26.7273 0Z" fill="white"/>
<path d="M20.354 10.854L12.354 18.854C12.3076 18.9005 12.2524 18.9374 12.1917 18.9626C12.131 18.9877 12.066 19.0007 12.0003 19.0007C11.9346 19.0007 11.8695 18.9877 11.8088 18.9626C11.7481 18.9374 11.693 18.9005 11.6465 18.854L8.14653 15.354C8.05271 15.2602 8 15.133 8 15.0003C8 14.8676 8.05271 14.7403 8.14653 14.6465C8.24035 14.5527 8.3676 14.5 8.50028 14.5C8.63296 14.5 8.76021 14.5527 8.85403 14.6465L12.0003 17.7934L19.6465 10.1465C19.7403 10.0527 19.8676 10 20.0003 10C20.133 10 20.2602 10.0527 20.354 10.1465C20.4478 10.2403 20.5006 10.3676 20.5006 10.5003C20.5006 10.633 20.4478 10.7602 20.354 10.854Z" fill="#4B23EB"/>
</g>
<defs>
<clipPath id="clip0_4112_36300">
<rect width="28" height="28" rx="4" fill="white"/>
</clipPath>
</defs>
</svg>
