<svg width="52" height="52" viewBox="0 0 52 52" fill="none" xmlns="http://www.w3.org/2000/svg">
<path d="M0 8C0 3.58172 3.58172 0 8 0H44C48.4183 0 52 3.58172 52 8V44C52 48.4183 48.4183 52 44 52H8C3.58172 52 0 48.4183 0 44V8Z" fill="white"/>
<path d="M39.3337 39.3327H12.667" stroke="#4B23EB" stroke-width="1.5" stroke-linecap="round" stroke-linejoin="round"/>
<path d="M37.9997 39.3327V37.9993V37.9993C37.9997 36.5275 37.7624 35.0653 37.297 33.6689L36.4617 31.1631C36.0086 29.8036 35.7775 28.3799 35.7775 26.9468V25.9993C35.7775 25.263 35.1806 24.666 34.4442 24.666H27.333" stroke="#4B23EB" stroke-width="1.5" stroke-linecap="round" stroke-linejoin="round"/>
<path d="M14 39.3333V38V38C14 36.2338 14.2847 34.4791 14.8433 32.8035L15.4018 31.1281C16.2395 28.6147 16.6667 25.9827 16.6667 23.3333V23.3333C16.6667 22.597 17.2636 22 18 22H26C26.7364 22 27.3333 22.597 27.3333 23.3333V24.7369C27.3333 26.4566 27.6106 28.1651 28.1544 29.7965L29.1567 32.8035C29.7153 34.4791 30 36.2338 30 38V38V39.3333" stroke="#4B23EB" stroke-width="1.5" stroke-linecap="round" stroke-linejoin="round"/>
<path d="M31.333 20.666C31.333 19.5614 32.2284 18.666 33.333 18.666C34.4376 18.666 35.333 17.7706 35.333 16.666" stroke="#4B23EB" stroke-width="1.5" stroke-linecap="round" stroke-linejoin="round"/>
<path d="M22 17.9993C22 16.5266 23.1939 15.3327 24.6667 15.3327C26.1394 15.3327 27.3333 14.1388 27.3333 12.666" stroke="#4B23EB" stroke-width="1.5" stroke-linecap="round" stroke-linejoin="round"/>
</svg>
