<svg width="64" height="64" viewBox="0 0 64 64" fill="none" xmlns="http://www.w3.org/2000/svg">
<path d="M53 47.75V49.5C53 51.3565 52.2625 53.137 50.9497 54.4497C49.637 55.7625 47.8565 56.5 46 56.5H33.75" stroke="white" stroke-width="2" stroke-linecap="round" stroke-linejoin="round"/>
<path d="M53 32H46C45.0717 32 44.1815 32.3687 43.5251 33.0251C42.8687 33.6815 42.5 34.5717 42.5 35.5V44.25C42.5 45.1783 42.8687 46.0685 43.5251 46.7249C44.1815 47.3813 45.0717 47.75 46 47.75H53V32ZM53 32C53 29.2422 52.4568 26.5115 51.4015 23.9636C50.3461 21.4158 48.7993 19.1008 46.8492 17.1508C44.8992 15.2007 42.5842 13.6539 40.0364 12.5985C37.4885 11.5432 34.7578 11 32 11C29.2422 11 26.5115 11.5432 23.9636 12.5985C21.4158 13.6539 19.1008 15.2007 17.1508 17.1508C15.2007 19.1008 13.6539 21.4158 12.5985 23.9636C11.5432 26.5115 11 29.2422 11 32M11 32V44.25C11 45.1783 11.3687 46.0685 12.0251 46.7249C12.6815 47.3813 13.5717 47.75 14.5 47.75H18C18.9283 47.75 19.8185 47.3813 20.4749 46.7249C21.1313 46.0685 21.5 45.1783 21.5 44.25V35.5C21.5 34.5717 21.1313 33.6815 20.4749 33.0251C19.8185 32.3687 18.9283 32 18 32H11Z" stroke="white" stroke-width="2" stroke-linecap="round" stroke-linejoin="round"/>
</svg>
