<svg width="64" height="64" viewBox="0 0 64 64" fill="none" xmlns="http://www.w3.org/2000/svg">
<path d="M51.7431 40H12.2566C11.3784 40 10.6665 40.7462 10.6665 41.6667V51.6667C10.6665 52.5871 11.3784 53.3333 12.2566 53.3333H51.7431C52.6213 53.3333 53.3332 52.5871 53.3332 51.6667V41.6667C53.3332 40.7462 52.6213 40 51.7431 40Z" stroke="white" stroke-width="2" stroke-linecap="round" stroke-linejoin="round"/>
<path d="M32 44V49.3333" stroke="white" stroke-width="2" stroke-linecap="square" stroke-linejoin="round"/>
<path d="M43.3335 44V49.3333" stroke="white" stroke-width="2" stroke-linecap="square" stroke-linejoin="round"/>
<path d="M20.6665 44V49.3333" stroke="white" stroke-width="2" stroke-linecap="square" stroke-linejoin="round"/>
<path d="M29.3335 33.6296L29.3335 17.037C29.3335 16.4643 28.8692 16 28.2965 16L11.7039 16C11.1311 16 10.6668 16.4643 10.6668 17.037L10.6668 33.6296C10.6668 34.2024 11.1311 34.6667 11.7039 34.6667L28.2965 34.6667C28.8692 34.6667 29.3335 34.2024 29.3335 33.6296Z" stroke="white" stroke-width="2" stroke-linecap="round"/>
<path d="M53.3335 33.6296L53.3335 17.037C53.3335 16.4643 52.8692 16 52.2965 16L35.7039 16C35.1311 16 34.6668 16.4643 34.6668 17.037L34.6668 33.6296C34.6668 34.2024 35.1311 34.6667 35.7039 34.6667L52.2965 34.6667C52.8692 34.6667 53.3335 34.2024 53.3335 33.6296Z" stroke="white" stroke-width="2" stroke-linecap="round"/>
<path d="M53.3335 10.666L10.6669 10.666" stroke="white" stroke-width="2" stroke-linecap="square" stroke-linejoin="round"/>
</svg>
