<svg width="64" height="64" viewBox="0 0 64 64" fill="none" xmlns="http://www.w3.org/2000/svg">
<path d="M47.75 16.25H14.5C13.5335 16.25 12.75 17.0335 12.75 18V32C12.75 32.9665 13.5335 33.75 14.5 33.75H47.75C48.7165 33.75 49.5 32.9665 49.5 32V18C49.5 17.0335 48.7165 16.25 47.75 16.25Z" stroke="white" stroke-width="2" stroke-linecap="round" stroke-linejoin="round"/>
<path d="M49.5 25H54.75C55.2141 25 55.6592 25.1844 55.9874 25.5126C56.3156 25.8408 56.5 26.2859 56.5 26.75V37.6875C56.4999 38.0676 56.3761 38.4374 56.1472 38.7409C55.9183 39.0444 55.5967 39.2651 55.2312 39.3697L33.2688 45.6369C32.9043 45.7411 32.5836 45.9608 32.3548 46.263C32.126 46.5652 32.0015 46.9335 32 47.3125V54.75" stroke="white" stroke-width="2" stroke-linecap="square" stroke-linejoin="round"/>
<path d="M12.75 25H7.5" stroke="white" stroke-width="2" stroke-linecap="square" stroke-linejoin="round"/>
<path d="M10.4443 47.2202C10.4443 42.8452 14.8193 39.3452 14.8193 39.3452C14.8193 39.3452 19.1943 42.8452 19.1943 47.2202C19.1943 48.3805 18.7334 49.4933 17.9129 50.3138C17.0925 51.1343 15.9797 51.5952 14.8193 51.5952C13.659 51.5952 12.5462 51.1343 11.7257 50.3138C10.9053 49.4933 10.4443 48.3805 10.4443 47.2202Z" stroke="white" stroke-width="2" stroke-linecap="round"/>
</svg>
