<svg width="64" height="64" viewBox="0 0 64 64" fill="none" xmlns="http://www.w3.org/2000/svg">
<path d="M47.7998 44H16.1998C12.6652 44 9.7998 46.8654 9.7998 50.4C9.7998 53.9346 12.6652 56.8 16.1998 56.8H47.7998C51.3344 56.8 54.1998 53.9346 54.1998 50.4C54.1998 46.8654 51.3344 44 47.7998 44Z" stroke="white" stroke-width="2" stroke-linecap="round" stroke-linejoin="round"/>
<path d="M18.5 53C19.8807 53 21 51.8807 21 50.5C21 49.1193 19.8807 48 18.5 48C17.1193 48 16 49.1193 16 50.5C16 51.8807 17.1193 53 18.5 53Z" stroke="white" stroke-width="2" stroke-linecap="round" stroke-linejoin="round"/>
<path d="M32.5 53C33.8807 53 35 51.8807 35 50.5C35 49.1193 33.8807 48 32.5 48C31.1193 48 30 49.1193 30 50.5C30 51.8807 31.1193 53 32.5 53Z" stroke="white" stroke-width="2" stroke-linecap="round" stroke-linejoin="round"/>
<path d="M45.5 53C46.8807 53 48 51.8807 48 50.5C48 49.1193 46.8807 48 45.5 48C44.1193 48 43 49.1193 43 50.5C43 51.8807 44.1193 53 45.5 53Z" stroke="white" stroke-width="2" stroke-linecap="round" stroke-linejoin="round"/>
<path d="M31.6003 30.2074C34.5873 30.2074 37.0087 27.786 37.0087 24.799C37.0087 21.812 34.5873 19.3906 31.6003 19.3906C28.6133 19.3906 26.1919 21.812 26.1919 24.799C26.1919 27.786 28.6133 30.2074 31.6003 30.2074Z" stroke="white" stroke-width="2" stroke-linecap="square"/>
<path d="M41.5789 34.6489L40.9367 30.1898L45.1193 28.5166V21.0823L40.9381 19.4097L41.5805 14.9498L35.1422 11.2327L31.6009 14.019L28.0596 11.2327L21.6213 14.9498L22.2636 19.4089L18.0806 21.0823V28.5166L22.265 30.1906L21.6229 34.6489L28.0612 38.366L31.6009 35.5809L35.1406 38.366L41.5789 34.6489Z" stroke="white" stroke-width="2" stroke-linecap="square"/>
</svg>
