<svg width="52" height="52" viewBox="0 0 52 52" fill="none" xmlns="http://www.w3.org/2000/svg">
<path d="M0 8C0 3.58172 3.58172 0 8 0H44C48.4183 0 52 3.58172 52 8V44C52 48.4183 48.4183 52 44 52H8C3.58172 52 0 48.4183 0 44V8Z" fill="white"/>
<path d="M23.333 33.9993V26.666C23.333 25.5614 22.4376 24.666 21.333 24.666V24.666C20.2284 24.666 19.333 25.5614 19.333 26.666V33.9993" stroke="#4B23EB" stroke-width="1.5" stroke-linecap="round" stroke-linejoin="round"/>
<path d="M32.667 33.9993V26.666C32.667 25.5614 31.7716 24.666 30.667 24.666V24.666C29.5624 24.666 28.667 25.5614 28.667 26.666V33.9993" stroke="#4B23EB" stroke-width="1.5" stroke-linecap="round" stroke-linejoin="round"/>
<path d="M39.3337 18.0007H12.667" stroke="#4B23EB" stroke-width="1.5" stroke-linecap="round" stroke-linejoin="round"/>
<path d="M20.6667 18.0225V15.3409C20.6667 14.6003 20.0663 14 19.3258 14H15.3409C14.6003 14 14 14.6003 14 15.3409V34" stroke="#4B23EB" stroke-width="1.5" stroke-linecap="round" stroke-linejoin="round"/>
<path d="M39.3333 38C38.7038 38.8394 37.7159 39.3333 36.6667 39.3333C35.6175 39.3333 34.6295 38.8394 34 38" stroke="#4B23EB" stroke-width="1.5" stroke-linecap="round" stroke-linejoin="round"/>
<path d="M18.0003 38C17.3708 38.8394 16.3828 39.3333 15.3337 39.3333C14.2845 39.3333 13.2965 38.8394 12.667 38" stroke="#4B23EB" stroke-width="1.5" stroke-linecap="round" stroke-linejoin="round"/>
<path d="M23.3333 38C22.7038 38.8394 21.7159 39.3333 20.6667 39.3333C19.6175 39.3333 18.6295 38.8394 18 38" stroke="#4B23EB" stroke-width="1.5" stroke-linecap="round" stroke-linejoin="round"/>
<path d="M28.6663 38C28.0368 38.8394 27.0489 39.3333 25.9997 39.3333C24.9505 39.3333 23.9625 38.8394 23.333 38" stroke="#4B23EB" stroke-width="1.5" stroke-linecap="round" stroke-linejoin="round"/>
<path d="M34.0003 38C33.3708 38.8394 32.3829 39.3333 31.3337 39.3333C30.2845 39.3333 29.2965 38.8394 28.667 38" stroke="#4B23EB" stroke-width="1.5" stroke-linecap="round" stroke-linejoin="round"/>
<path d="M31.333 18.0225V15.3409C31.333 14.6003 31.9333 14 32.6739 14H36.6588C37.3994 14 37.9997 14.6003 37.9997 15.3409V34" stroke="#4B23EB" stroke-width="1.5" stroke-linecap="round" stroke-linejoin="round"/>
</svg>
