<svg width="221" height="36" viewBox="0 0 221 36" fill="none" xmlns="http://www.w3.org/2000/svg">
<g clip-path="url(#clip0_1476_5485)">
<path d="M51.0656 9.64517L46.2167 4.24871V13.8939H43.5469V4.7043e-08L45.5885 4.06473e-08L51.1048 6.30258L56.5426 6.3339e-09L58.5646 0V13.8939H55.8948V4.28898L51.0656 9.64517Z" fill="#4B23EB"/>
<path d="M70.8548 11.538V13.8939H60.1953V3.33299e-08L70.8351 0V2.35592H62.8654V5.73877H70.6979V8.07457H62.8654V11.538H70.8548Z" fill="#4B23EB"/>
<path d="M84.3155 5.05415C84.3155 6.89321 83.9224 8.25575 83.1377 9.14174C82.3652 10.0144 81.1806 10.4506 79.5839 10.4506H74.9121V13.8939H72.2422V2.28758e-08L79.5452 0C81.2329 -5.28854e-09 82.45 0.389297 83.1961 1.16789C83.9421 1.94648 84.3155 3.2419 84.3155 5.05415ZM79.0931 2.35592H74.9121V8.09469H79.1325C79.9831 8.09469 80.6049 7.86651 80.9973 7.41008C81.4032 6.95365 81.6062 6.18176 81.6062 5.09442C81.6062 4.0205 81.4297 3.2956 81.076 2.91973C80.723 2.54386 80.0618 2.35592 79.0931 2.35592Z" fill="#4B23EB"/>
<path d="M88.1658 2.96399e-08V9.46392L95.7044 6.02602e-09L97.6283 0V13.8939H94.9584V4.51048L87.3608 13.8939H85.5156V3.79415e-08L88.1658 2.96399e-08Z" fill="#4B23EB"/>
<path d="M113.542 11.4373V17.317H110.99V13.8939H100.9V17.317H98.3281V11.4373H99.8596C100.435 10.4976 100.802 9.51761 100.959 8.49743C101.115 7.46376 101.194 5.6985 101.194 3.20163V3.30838e-08L111.756 0V11.4373H113.542ZM103.688 3.90639C103.688 7.51745 103.314 10.0277 102.568 11.4373H109.066V2.35592H103.688V3.90639Z" fill="#4B23EB"/>
<path d="M117.013 2.96406e-08V9.46392L124.551 6.02666e-09L126.475 0V13.8939H123.805V4.51048L116.208 13.8939H114.363V3.79421e-08L117.013 2.96406e-08Z" fill="#4B23EB"/>
<path d="M127.02 13.8939L133.145 6.8876e-09L135.344 0L141.409 13.8939H138.425L137.483 11.538H130.907L129.945 13.8939H127.02ZM134.224 3.4634L131.771 9.46392H136.639L134.224 3.4634Z" fill="#4B23EB"/>
<path d="M144.654 3.09314e-08V5.73877H151.858V8.36319e-09L154.528 0V13.8939H151.858V8.19538H144.654V13.8939H141.984V3.92946e-08L144.654 3.09314e-08Z" fill="#4B23EB"/>
<path d="M42.4844 32.5511L48.6093 18.6572H50.8079L56.8739 32.5511H53.89L52.9477 30.1952H46.3713L45.4094 32.5511H42.4844ZM49.689 22.1206L47.2351 28.1211H52.1036L49.689 22.1206Z" fill="#4B23EB"/>
<path d="M66.6404 25.3424V25.5236C68.5249 25.7787 69.4671 26.8123 69.4671 28.6246C69.4671 29.9804 69.0876 30.9737 68.3287 31.6047C67.5697 32.2357 66.4116 32.5511 64.8543 32.5511H57.4531V18.6572H64.5794C66.176 18.6572 67.3274 18.9525 68.0341 19.5432C68.7407 20.1205 69.0944 21.0869 69.0944 22.4428C69.0944 23.208 68.8717 23.8389 68.4271 24.3356C67.9947 24.8323 67.3993 25.1679 66.6404 25.3424ZM64.3826 26.5707H60.1229V30.1952H64.4219C65.2338 30.1952 65.8291 30.0609 66.2086 29.7924C66.601 29.5106 66.7972 29.0407 66.7972 28.3829C66.7972 27.6849 66.6207 27.2084 66.2677 26.9533C65.9269 26.6982 65.299 26.5707 64.3826 26.5707ZM64.147 21.0131H60.1229V24.5168H64.1864C64.9453 24.5168 65.5081 24.3758 65.8747 24.094C66.2412 23.812 66.4245 23.3422 66.4245 22.6844C66.4245 22.0267 66.2609 21.5837 65.9337 21.3554C65.6065 21.1273 65.0111 21.0131 64.147 21.0131Z" fill="#4B23EB"/>
<path d="M82.5697 18.6572V21.1138H77.4268V32.5511H74.7569V21.1138H69.6133V18.6572H82.5697Z" fill="#4B23EB"/>
<path d="M93.1888 32.5102C92.3382 32.7383 91.2907 32.8525 90.0477 32.8525C88.8041 32.8525 87.7512 32.7383 86.887 32.5102C86.0364 32.2819 85.3033 31.8926 84.6883 31.3422C84.0732 30.7919 83.6218 30.0536 83.334 29.1273C83.059 28.1876 82.9219 27.0197 82.9219 25.6236C82.9219 24.1872 83.0719 22.9925 83.3733 22.0394C83.6741 21.0729 84.139 20.3278 84.767 19.8043C85.4085 19.2674 86.141 18.8915 86.9658 18.6767C87.8035 18.4619 88.8306 18.3545 90.0477 18.3545C91.252 18.3545 92.2662 18.4619 93.0904 18.6767C93.928 18.8915 94.6673 19.2674 95.3088 19.8043C95.9503 20.3278 96.4214 21.0729 96.7222 22.0394C97.0236 22.9925 97.1736 24.1872 97.1736 25.6236C97.1736 27.0197 97.0297 28.1876 96.7419 29.1273C96.454 30.0536 96.0026 30.7919 95.3875 31.3422C94.7725 31.8926 94.0394 32.2819 93.1888 32.5102ZM88.0452 30.2751C88.5557 30.3824 89.223 30.4361 90.0477 30.4361C90.8725 30.4361 91.5331 30.3824 92.0306 30.2751C92.5276 30.1542 92.9729 29.926 93.3653 29.5904C93.7712 29.2548 94.0523 28.7648 94.2097 28.1205C94.3795 27.4761 94.465 26.6438 94.465 25.6236C94.465 24.5631 94.3795 23.7107 94.2097 23.0664C94.0523 22.4086 93.7712 21.9186 93.3653 21.5964C92.9594 21.2608 92.5079 21.0393 92.011 20.9319C91.5263 20.8245 90.8725 20.7708 90.0477 20.7708C89.2101 20.7708 88.5427 20.8245 88.0452 20.9319C87.5611 21.0259 87.1165 21.2406 86.7105 21.5763C86.3046 21.9119 86.0168 22.4086 85.8464 23.0664C85.6896 23.7107 85.6108 24.5631 85.6108 25.6236C85.6108 26.6572 85.6896 27.4962 85.8464 28.1406C86.0168 28.7715 86.2984 29.2548 86.6908 29.5904C87.0968 29.926 87.5482 30.1542 88.0452 30.2751Z" fill="#4B23EB"/>
<path d="M106.116 28.3024L101.267 22.9059V32.5511H98.5977V18.6572H100.639L106.155 24.9598L111.593 18.6572H113.615V32.5511H110.945V22.9462L106.116 28.3024Z" fill="#4B23EB"/>
<path d="M114.184 32.5511L120.309 18.6572H122.507L128.573 32.5511H125.59L124.647 30.1952H118.071L117.109 32.5511H114.184ZM121.388 22.1206L118.934 28.1211H123.803L121.388 22.1206Z" fill="#4B23EB"/>
<path d="M139.273 18.6572V21.1138H134.129V32.5511H131.459V21.1138H126.316V18.6572H139.273Z" fill="#4B23EB"/>
<path d="M142.662 18.6572V28.1211L150.2 18.6572H152.124V32.5511H149.454V23.1677L141.857 32.5511H140.012V18.6572H142.662Z" fill="#4B23EB"/>
<path d="M165.955 28.6239C165.955 31.4429 163.907 32.8525 159.811 32.8525C157.677 32.8525 156.075 32.4497 155.001 31.6443C153.928 30.8254 153.339 29.4494 153.234 27.5164H155.944C156.048 28.6843 156.408 29.4629 157.023 29.8522C157.639 30.2415 158.554 30.4361 159.772 30.4361C161.002 30.4361 161.886 30.2751 162.422 29.9529C162.972 29.6173 163.247 29.1071 163.247 28.4225C163.247 27.7782 163.076 27.315 162.736 27.0331C162.409 26.7378 161.767 26.5901 160.812 26.5901H158.79V24.3752H160.734C161.558 24.3752 162.114 24.2141 162.402 23.8919C162.703 23.5563 162.854 23.1267 162.854 22.6032C162.854 21.3816 161.813 20.7708 159.732 20.7708C158.607 20.7708 157.736 20.9722 157.121 21.3749C156.506 21.7642 156.206 22.5159 156.219 23.6302H153.549C153.509 21.7642 154.033 20.4218 155.119 19.6029C156.219 18.7707 157.763 18.3545 159.752 18.3545C161.676 18.3545 163.129 18.7035 164.11 19.4016C165.092 20.0862 165.583 21.0796 165.583 22.3817C165.583 23.1469 165.36 23.7778 164.915 24.2745C164.483 24.7578 163.894 25.0933 163.148 25.2813V25.4424C165.02 25.7109 165.955 26.7714 165.955 28.6239Z" fill="#4B23EB"/>
<path d="M165.938 32.5511L172.062 18.6572H174.261L180.327 32.5511H177.343L176.401 30.1952H169.825L168.863 32.5511H165.938ZM173.142 22.1206L170.688 28.1211H175.557L173.142 22.1206Z" fill="#4B23EB"/>
<path d="M183.576 18.6572V30.0945H189.917V18.6572H192.587V30.0945H194.727V35.9742H192.174V32.5511H180.906V18.6572H183.576Z" fill="#4B23EB"/>
<path d="M198.228 18.6572V28.1211L205.766 18.6572H207.69V32.5511H205.02V23.1677L197.423 32.5511H195.578V18.6572H198.228Z" fill="#4B23EB"/>
<path d="M220.798 32.5511H218.109V28.2621H214.222L212.062 32.5511H209L211.611 27.9601C209.897 27.3157 209.039 25.7787 209.039 23.3489C209.039 21.6709 209.432 20.4694 210.217 19.7446C211.003 19.0197 212.278 18.6572 214.045 18.6572H220.798V32.5511ZM211.749 23.3892C211.749 24.3557 211.938 25.0202 212.318 25.3826C212.697 25.7317 213.345 25.9062 214.261 25.9062H218.109V21.0131H214.3C213.332 21.0131 212.664 21.1809 212.298 21.5166C211.931 21.8387 211.749 22.4629 211.749 23.3892Z" fill="#4B23EB"/>
<path d="M23.9844 8.20124H31.9799V0H23.9844V8.20124Z" fill="#4B23EB"/>
<path d="M7.99219 24.6036H15.9877V16.4023H7.99219V24.6036Z" fill="#4B23EB"/>
<path opacity="0.3" d="M23.9844 16.4019H31.9799V8.20068H23.9844V16.4019Z" fill="#4B23EB"/>
<path opacity="0.3" d="M7.99219 32.8043H15.9877V24.603H7.99219V32.8043Z" fill="#4B23EB"/>
<path opacity="0.3" d="M15.9883 8.20124H23.9838V0H15.9883V8.20124Z" fill="#4B23EB"/>
<path opacity="0.3" d="M0 24.6036H7.99554V16.4023H0V24.6036Z" fill="#4B23EB"/>
<path fill-rule="evenodd" clip-rule="evenodd" d="M2.46017 0H0V2.52346V13.879H2.46017V2.52346H13.5309V0H2.46017Z" fill="#4B23EB"/>
<path fill-rule="evenodd" clip-rule="evenodd" d="M29.52 32.8048H31.9801V30.2814V18.9258H29.52V30.2814H18.4492V32.8048H29.52Z" fill="#4B23EB"/>
</g>
<defs>
<clipPath id="clip0_1476_5485">
<rect width="220.8" height="36" fill="white"/>
</clipPath>
</defs>
</svg>
