<svg width="221" height="36" viewBox="0 0 221 36" fill="none" xmlns="http://www.w3.org/2000/svg">
<g clip-path="url(#clip0_1189_1938)">
<path d="M51.0644 9.64505L46.2156 4.24859V13.8937H43.5457V-0.000114394L45.5874 -0.0001144L51.1037 6.30247L56.5414 -0.000114435L58.5635 -0.000114441V13.8937H55.8936V4.28887L51.0644 9.64505Z" fill="white"/>
<path d="M70.8538 11.5378V13.8937H60.1943V-0.000114408L70.8341 -0.000114441V2.35581H62.8644V5.73866H70.697V8.07445H62.8644V11.5378H70.8538Z" fill="white"/>
<path d="M84.3142 5.05404C84.3142 6.8931 83.9212 8.25564 83.1364 9.14162C82.3639 10.0142 81.1794 10.4505 79.5827 10.4505H74.9109V13.8937H72.241V-0.000114418L79.544 -0.000114441C81.2316 -0.000114446 82.4488 0.389183 83.1948 1.16777C83.9409 1.94637 84.3142 3.24179 84.3142 5.05404ZM79.0919 2.35581H74.9109V8.09458H79.1313C79.9819 8.09458 80.6037 7.86639 80.9961 7.40996C81.402 6.95353 81.605 6.18165 81.605 5.0943C81.605 4.02038 81.4284 3.29549 81.0748 2.91961C80.7218 2.54374 80.0606 2.35581 79.0919 2.35581Z" fill="white"/>
<path d="M88.1655 -0.000114411V9.46381L95.704 -0.000114435L97.6279 -0.000114441V13.8937H94.958V4.51036L87.3604 13.8937H85.5152V-0.000114403L88.1655 -0.000114411Z" fill="white"/>
<path d="M113.542 11.4372V17.3169H110.99V13.8937H100.899V17.3169H98.3278V11.4372H99.8593C100.435 10.4975 100.802 9.51749 100.958 8.49732C101.115 7.46365 101.194 5.69839 101.194 3.20152V-0.000114408L111.755 -0.000114441V11.4372H113.542ZM103.687 3.90628C103.687 7.51733 103.314 10.0276 102.568 11.4372H109.066V2.35581H103.687V3.90628Z" fill="white"/>
<path d="M117.015 -0.000114411V9.46381L124.553 -0.000114435L126.476 -0.000114441V13.8937H123.806V4.51036L116.209 13.8937H114.364V-0.000114403L117.015 -0.000114411Z" fill="white"/>
<path d="M127.019 13.8937L133.144 -0.000114434L135.343 -0.000114441L141.408 13.8937H138.425L137.482 11.5378H130.906L129.944 13.8937H127.019ZM134.223 3.46328L131.77 9.46381H136.638L134.223 3.46328Z" fill="white"/>
<path d="M144.656 -0.00011441V5.73866H151.86V-0.000114433L154.53 -0.000114441V13.8937H151.86V8.19526H144.656V13.8937H141.986V-0.000114402L144.656 -0.00011441Z" fill="white"/>
<path d="M42.486 32.5508L48.6108 18.657H50.8095L56.8755 32.5508H53.8916L52.9493 30.1949H46.3729L45.411 32.5508H42.486ZM49.6906 22.1204L47.2367 28.1209H52.1051L49.6906 22.1204Z" fill="white"/>
<path d="M66.6403 25.3421V25.5234C68.5248 25.7784 69.4671 26.812 69.4671 28.6243C69.4671 29.9801 69.0876 30.9735 68.3286 31.6045C67.5697 32.2354 66.4115 32.5508 64.8543 32.5508H57.4531V18.657H64.5793C66.176 18.657 67.3273 18.9523 68.034 19.543C68.7407 20.1202 69.0944 21.0867 69.0944 22.4426C69.0944 23.2077 68.8717 23.8387 68.427 24.3353C67.9947 24.832 67.3993 25.1676 66.6403 25.3421ZM64.3825 26.5704H60.1229V30.1949H64.4219C65.2337 30.1949 65.8291 30.0607 66.2086 29.7922C66.601 29.5103 66.7972 29.0405 66.7972 28.3826C66.7972 27.6847 66.6207 27.2081 66.2676 26.953C65.9269 26.698 65.2989 26.5704 64.3825 26.5704ZM64.147 21.0129H60.1229V24.5166H64.1863C64.9453 24.5166 65.5081 24.3756 65.8746 24.0937C66.2412 23.8118 66.4245 23.342 66.4245 22.6842C66.4245 22.0264 66.2609 21.5834 65.9337 21.3552C65.6065 21.127 65.0111 21.0129 64.147 21.0129Z" fill="white"/>
<path d="M82.569 18.657V21.1136H77.426V32.5508H74.7561V21.1136H69.6125V18.657H82.569Z" fill="white"/>
<path d="M93.1895 32.5103C92.3389 32.7385 91.2915 32.8526 90.0485 32.8526C88.8049 32.8526 87.7519 32.7385 86.8878 32.5103C86.0372 32.2821 85.3041 31.8928 84.689 31.3424C84.074 30.792 83.6226 30.0537 83.3347 29.1274C83.0598 28.1878 82.9226 27.0199 82.9226 25.6238C82.9226 24.1874 83.0727 22.9927 83.3741 22.0395C83.6748 21.0731 84.1398 20.328 84.7678 19.8045C85.4093 19.2675 86.1418 18.8917 86.9665 18.6768C87.8042 18.462 88.8313 18.3547 90.0485 18.3547C91.2528 18.3547 92.267 18.462 93.0911 18.6768C93.9288 18.8917 94.6681 19.2675 95.3096 19.8045C95.9511 20.328 96.4222 21.0731 96.7229 22.0395C97.0243 22.9927 97.1744 24.1874 97.1744 25.6238C97.1744 27.0199 97.0305 28.1878 96.7426 29.1274C96.4548 30.0537 96.0033 30.792 95.3883 31.3424C94.7733 31.8928 94.0401 32.2821 93.1895 32.5103ZM88.0459 30.2752C88.5564 30.3826 89.2237 30.4363 90.0485 30.4363C90.8733 30.4363 91.5338 30.3826 92.0314 30.2752C92.5284 30.1544 92.9736 29.9262 93.366 29.5906C93.772 29.255 94.053 28.765 94.2105 28.1206C94.3803 27.4763 94.4657 26.644 94.4657 25.6238C94.4657 24.5633 94.3803 23.7108 94.2105 23.0665C94.053 22.4087 93.772 21.9187 93.366 21.5965C92.9601 21.261 92.5087 21.0395 92.0117 20.9321C91.5271 20.8247 90.8733 20.771 90.0485 20.771C89.2108 20.771 88.5435 20.8247 88.0459 20.9321C87.5619 21.0261 87.1172 21.2408 86.7113 21.5764C86.3054 21.912 86.0175 22.4087 85.8472 23.0665C85.6903 23.7108 85.6116 24.5633 85.6116 25.6238C85.6116 26.6574 85.6903 27.4964 85.8472 28.1408C86.0175 28.7717 86.2992 29.255 86.6916 29.5906C87.0975 29.9262 87.549 30.1544 88.0459 30.2752Z" fill="white"/>
<path d="M106.116 28.3022L101.267 22.9057V32.5508H98.598V18.657H100.639L106.156 24.9596L111.593 18.657H113.616V32.5508H110.946V22.9459L106.116 28.3022Z" fill="white"/>
<path d="M114.185 32.5508L120.31 18.657H122.508L128.575 32.5508H125.591L124.648 30.1949H118.072L117.11 32.5508H114.185ZM121.39 22.1204L118.936 28.1209H123.804L121.39 22.1204Z" fill="white"/>
<path d="M139.272 18.657V21.1136H134.129V32.5508H131.459V21.1136H126.316V18.657H139.272Z" fill="white"/>
<path d="M142.662 18.657V28.1209L150.201 18.657H152.125V32.5508H149.455V23.1674L141.857 32.5508H140.012V18.657H142.662Z" fill="white"/>
<path d="M165.956 28.6241C165.956 31.4431 163.908 32.8526 159.812 32.8526C157.678 32.8526 156.075 32.4499 155.002 31.6445C153.929 30.8256 153.34 29.4496 153.235 27.5166H155.944C156.049 28.6844 156.409 29.4631 157.024 29.8524C157.639 30.2417 158.555 30.4363 159.772 30.4363C161.002 30.4363 161.886 30.2752 162.422 29.953C162.972 29.6174 163.247 29.1073 163.247 28.4227C163.247 27.7783 163.077 27.3152 162.737 27.0333C162.41 26.738 161.768 26.5903 160.813 26.5903H158.791V24.3753H160.734C161.559 24.3753 162.115 24.2143 162.403 23.8921C162.704 23.5565 162.854 23.1269 162.854 22.6033C162.854 21.3818 161.814 20.771 159.733 20.771C158.607 20.771 157.737 20.9724 157.122 21.3751C156.507 21.7644 156.206 22.5161 156.219 23.6303H153.549C153.51 21.7644 154.033 20.4219 155.119 19.6031C156.219 18.7708 157.764 18.3547 159.753 18.3547C161.676 18.3547 163.129 18.7037 164.111 19.4018C165.092 20.0864 165.583 21.0797 165.583 22.3818C165.583 23.147 165.361 23.778 164.916 24.2746C164.483 24.7579 163.895 25.0935 163.149 25.2815V25.4426C165.02 25.711 165.956 26.7715 165.956 28.6241Z" fill="white"/>
<path d="M165.939 32.5508L172.064 18.657H174.263L180.329 32.5508H177.344L176.402 30.1949H169.826L168.864 32.5508H165.939ZM173.144 22.1204L170.69 28.1209H175.558L173.144 22.1204Z" fill="white"/>
<path d="M183.577 18.657V30.0942H189.918V18.657H192.587V30.0942H194.728V35.974H192.175V32.5508H180.907V18.657H183.577Z" fill="white"/>
<path d="M198.229 18.657V28.1209L205.767 18.657H207.691V32.5508H205.021V23.1674L197.424 32.5508H195.579V18.657H198.229Z" fill="white"/>
<path d="M220.797 32.5508H218.108V28.2618H214.221L212.061 32.5508H208.999L211.61 27.9598C209.896 27.3155 209.038 25.7784 209.038 23.3487C209.038 21.6707 209.431 20.4692 210.216 19.7443C211.002 19.0194 212.277 18.657 214.044 18.657H220.797V32.5508ZM211.748 23.3889C211.748 24.3555 211.937 25.02 212.317 25.3824C212.696 25.7314 213.344 25.9059 214.26 25.9059H218.108V21.0129H214.299C213.331 21.0129 212.663 21.1807 212.297 21.5163C211.93 21.8384 211.748 22.4627 211.748 23.3889Z" fill="white"/>
<path d="M23.9845 8.20113H31.98V-0.000114441H23.9845V8.20113Z" fill="white"/>
<path d="M7.99346 24.6034H15.989V16.4021H7.99346V24.6034Z" fill="white"/>
<path opacity="0.3" d="M23.9845 16.4019H31.98V8.20068H23.9845V16.4019Z" fill="white"/>
<path opacity="0.3" d="M7.99346 32.8044H15.989V24.6031H7.99346V32.8044Z" fill="white"/>
<path opacity="0.3" d="M15.9881 8.20113H23.9836V-0.000114441H15.9881V8.20113Z" fill="white"/>
<path opacity="0.3" d="M-0.000312805 24.6034H7.99523V16.4021H-0.000312805V24.6034Z" fill="white"/>
<path fill-rule="evenodd" clip-rule="evenodd" d="M2.45975 -0.000236511H-0.000411987V2.52322V13.8788H2.45975V2.52322H13.5305V-0.000236511H2.45975Z" fill="white"/>
<path fill-rule="evenodd" clip-rule="evenodd" d="M29.5203 32.8047H31.9805V30.2812V18.9256H29.5203V30.2812H18.4495V32.8047H29.5203Z" fill="white"/>
</g>
<defs>
<clipPath id="clip0_1189_1938">
<rect width="220.8" height="36" fill="white"/>
</clipPath>
</defs>
</svg>
