<svg width="80" height="80" viewBox="0 0 80 80" fill="none" xmlns="http://www.w3.org/2000/svg">
<g clip-path="url(#clip0_2622_8918)">
<path d="M37.5 22.5C41.6421 22.5 45 19.1421 45 15C45 10.8579 41.6421 7.5 37.5 7.5C33.3579 7.5 30 10.8579 30 15C30 19.1421 33.3579 22.5 37.5 22.5Z" stroke="white" stroke-width="2" stroke-linecap="round" stroke-linejoin="round"/>
<path d="M12.5 45C16.6421 45 20 41.6421 20 37.5C20 33.3579 16.6421 30 12.5 30C8.35786 30 5 33.3579 5 37.5C5 41.6421 8.35786 45 12.5 45Z" stroke="white" stroke-width="2" stroke-linecap="round" stroke-linejoin="round"/>
<path d="M50 72.5C54.1421 72.5 57.5 69.1421 57.5 65C57.5 60.8579 54.1421 57.5 50 57.5C45.8579 57.5 42.5 60.8579 42.5 65C42.5 69.1421 45.8579 72.5 50 72.5Z" stroke="white" stroke-width="2" stroke-linecap="round" stroke-linejoin="round"/>
<path d="M65 30C69.1421 30 72.5 26.6421 72.5 22.5C72.5 18.3579 69.1421 15 65 15C60.8579 15 57.5 18.3579 57.5 22.5C57.5 26.6421 60.8579 30 65 30Z" stroke="white" stroke-width="2" stroke-linecap="round" stroke-linejoin="round"/>
<path d="M57.7656 20.5289L44.7344 16.9727" stroke="white" stroke-width="2" stroke-linecap="round" stroke-linejoin="round"/>
<path d="M31.9242 20.0195L18.0742 32.482" stroke="white" stroke-width="2" stroke-linecap="round" stroke-linejoin="round"/>
<path d="M18.5508 41.9336L43.9508 60.5648" stroke="white" stroke-width="2" stroke-linecap="round" stroke-linejoin="round"/>
<path d="M52.4961 57.9242L62.5023 29.5742" stroke="white" stroke-width="2" stroke-linecap="round" stroke-linejoin="round"/>
</g>
<defs>
<clipPath id="clip0_2622_8918">
<rect width="80" height="80" fill="white"/>
</clipPath>
</defs>
</svg>
