<svg width="221" height="36" viewBox="0 0 221 36" fill="none" xmlns="http://www.w3.org/2000/svg">
<g clip-path="url(#clip0_4218_37540)">
<path d="M51.0646 9.64517L46.2157 4.24871V13.8939H43.5459V4.7043e-08L45.5875 4.06473e-08L51.1038 6.30258L56.5416 6.3339e-09L58.5636 0V13.8939H55.8938V4.28898L51.0646 9.64517Z" fill="#4B23EB"/>
<path d="M70.8538 11.538V13.8939H60.1943V3.33299e-08L70.8341 0V2.35592H62.8644V5.73877H70.697V8.07457H62.8644V11.538H70.8538Z" fill="#4B23EB"/>
<path d="M84.3145 5.05415C84.3145 6.89321 83.9215 8.25575 83.1367 9.14174C82.3642 10.0144 81.1796 10.4506 79.583 10.4506H74.9111V13.8939H72.2412V2.28758e-08L79.5442 0C81.2319 -5.28854e-09 82.4491 0.389297 83.1951 1.16789C83.9411 1.94648 84.3145 3.2419 84.3145 5.05415ZM79.0922 2.35592H74.9111V8.09469H79.1315C79.9821 8.09469 80.6039 7.86651 80.9963 7.41008C81.4023 6.95365 81.6052 6.18176 81.6052 5.09442C81.6052 4.0205 81.4287 3.2956 81.0751 2.91973C80.722 2.54386 80.0609 2.35592 79.0922 2.35592Z" fill="#4B23EB"/>
<path d="M88.1658 2.96399e-08V9.46392L95.7044 6.02602e-09L97.6283 0V13.8939H94.9584V4.51048L87.3608 13.8939H85.5156V3.79415e-08L88.1658 2.96399e-08Z" fill="#4B23EB"/>
<path d="M113.542 11.4373V17.317H110.99V13.8939H100.9V17.317H98.3281V11.4373H99.8596C100.435 10.4976 100.802 9.51761 100.959 8.49743C101.115 7.46376 101.194 5.6985 101.194 3.20163V3.30838e-08L111.756 0V11.4373H113.542ZM103.688 3.90639C103.688 7.51745 103.314 10.0277 102.568 11.4373H109.066V2.35592H103.688V3.90639Z" fill="#4B23EB"/>
<path d="M117.014 2.96406e-08V9.46392L124.552 6.02666e-09L126.476 0V13.8939H123.806V4.51048L116.209 13.8939H114.364V3.79421e-08L117.014 2.96406e-08Z" fill="#4B23EB"/>
<path d="M127.019 13.8939L133.144 6.8876e-09L135.343 0L141.408 13.8939H138.425L137.482 11.538H130.906L129.944 13.8939H127.019ZM134.223 3.4634L131.77 9.46392H136.638L134.223 3.4634Z" fill="#4B23EB"/>
<path d="M144.655 3.09314e-08V5.73877H151.859V8.36319e-09L154.529 0V13.8939H151.859V8.19538H144.655V13.8939H141.985V3.92946e-08L144.655 3.09314e-08Z" fill="#4B23EB"/>
<path d="M42.4863 32.5511L48.6112 18.6572H50.8099L56.8758 32.5511H53.892L52.9497 30.1952H46.3733L45.4113 32.5511H42.4863ZM49.6909 22.1206L47.237 28.1211H52.1055L49.6909 22.1206Z" fill="#4B23EB"/>
<path d="M66.6404 25.3424V25.5236C68.5249 25.7787 69.4671 26.8123 69.4671 28.6246C69.4671 29.9804 69.0876 30.9737 68.3287 31.6047C67.5697 32.2357 66.4116 32.5511 64.8543 32.5511H57.4531V18.6572H64.5794C66.176 18.6572 67.3274 18.9525 68.0341 19.5432C68.7407 20.1205 69.0944 21.0869 69.0944 22.4428C69.0944 23.208 68.8717 23.8389 68.4271 24.3356C67.9947 24.8323 67.3993 25.1679 66.6404 25.3424ZM64.3826 26.5707H60.1229V30.1952H64.4219C65.2338 30.1952 65.8291 30.0609 66.2086 29.7924C66.601 29.5106 66.7972 29.0407 66.7972 28.3829C66.7972 27.6849 66.6207 27.2084 66.2677 26.9533C65.9269 26.6982 65.299 26.5707 64.3826 26.5707ZM64.147 21.0131H60.1229V24.5168H64.1864C64.9453 24.5168 65.5081 24.3758 65.8747 24.094C66.2412 23.812 66.4245 23.3422 66.4245 22.6844C66.4245 22.0267 66.2609 21.5837 65.9337 21.3554C65.6065 21.1273 65.0111 21.0131 64.147 21.0131Z" fill="#4B23EB"/>
<path d="M82.5688 18.6572V21.1138H77.4258V32.5511H74.7559V21.1138H69.6123V18.6572H82.5688Z" fill="#4B23EB"/>
<path d="M93.1897 32.5102C92.3391 32.7383 91.2917 32.8525 90.0487 32.8525C88.8051 32.8525 87.7522 32.7383 86.888 32.5102C86.0374 32.2819 85.3043 31.8926 84.6892 31.3422C84.0742 30.7919 83.6228 30.0536 83.3349 29.1273C83.06 28.1876 82.9229 27.0197 82.9229 25.6236C82.9229 24.1872 83.0729 22.9925 83.3743 22.0394C83.675 21.0729 84.14 20.3278 84.768 19.8043C85.4095 19.2674 86.142 18.8915 86.9667 18.6767C87.8044 18.4619 88.8316 18.3545 90.0487 18.3545C91.253 18.3545 92.2672 18.4619 93.0913 18.6767C93.929 18.8915 94.6683 19.2674 95.3098 19.8043C95.9513 20.3278 96.4224 21.0729 96.7232 22.0394C97.0245 22.9925 97.1746 24.1872 97.1746 25.6236C97.1746 27.0197 97.0307 28.1876 96.7428 29.1273C96.455 30.0536 96.0036 30.7919 95.3885 31.3422C94.7735 31.8926 94.0403 32.2819 93.1897 32.5102ZM88.0462 30.2751C88.5566 30.3824 89.224 30.4361 90.0487 30.4361C90.8735 30.4361 91.5341 30.3824 92.0316 30.2751C92.5286 30.1542 92.9739 29.926 93.3663 29.5904C93.7722 29.2548 94.0533 28.7648 94.2107 28.1205C94.3805 27.4761 94.466 26.6438 94.466 25.6236C94.466 24.5631 94.3805 23.7107 94.2107 23.0664C94.0533 22.4086 93.7722 21.9186 93.3663 21.5964C92.9603 21.2608 92.5089 21.0393 92.0119 20.9319C91.5273 20.8245 90.8735 20.7708 90.0487 20.7708C89.211 20.7708 88.5437 20.8245 88.0462 20.9319C87.5621 21.0259 87.1174 21.2406 86.7115 21.5763C86.3056 21.9119 86.0177 22.4086 85.8474 23.0664C85.6905 23.7107 85.6118 24.5631 85.6118 25.6236C85.6118 26.6572 85.6905 27.4962 85.8474 28.1406C86.0177 28.7715 86.2994 29.2548 86.6918 29.5904C87.0978 29.926 87.5492 30.1542 88.0462 30.2751Z" fill="#4B23EB"/>
<path d="M106.116 28.3024L101.267 22.9059V32.5511H98.5977V18.6572H100.639L106.155 24.9598L111.593 18.6572H113.615V32.5511H110.945V22.9462L106.116 28.3024Z" fill="#4B23EB"/>
<path d="M114.186 32.5511L120.311 18.6572H122.509L128.575 32.5511H125.591L124.649 30.1952H118.073L117.111 32.5511H114.186ZM121.39 22.1206L118.936 28.1211H123.805L121.39 22.1206Z" fill="#4B23EB"/>
<path d="M139.272 18.6572V21.1138H134.128V32.5511H131.458V21.1138H126.315V18.6572H139.272Z" fill="#4B23EB"/>
<path d="M142.663 18.6572V28.1211L150.201 18.6572H152.125V32.5511H149.455V23.1677L141.858 32.5511H140.013V18.6572H142.663Z" fill="#4B23EB"/>
<path d="M165.956 28.6239C165.956 31.4429 163.908 32.8525 159.812 32.8525C157.678 32.8525 156.076 32.4497 155.002 31.6443C153.929 30.8254 153.34 29.4494 153.235 27.5164H155.945C156.049 28.6843 156.409 29.4629 157.024 29.8522C157.64 30.2415 158.555 30.4361 159.773 30.4361C161.003 30.4361 161.887 30.2751 162.423 29.9529C162.973 29.6173 163.248 29.1071 163.248 28.4225C163.248 27.7782 163.077 27.315 162.737 27.0331C162.41 26.7378 161.768 26.5901 160.813 26.5901H158.791V24.3752H160.735C161.559 24.3752 162.115 24.2141 162.403 23.8919C162.704 23.5563 162.855 23.1267 162.855 22.6032C162.855 21.3816 161.814 20.7708 159.733 20.7708C158.608 20.7708 157.737 20.9722 157.122 21.3749C156.507 21.7642 156.207 22.5159 156.22 23.6302H153.55C153.51 21.7642 154.034 20.4218 155.12 19.6029C156.22 18.7707 157.764 18.3545 159.753 18.3545C161.677 18.3545 163.13 18.7035 164.111 19.4016C165.093 20.0862 165.584 21.0796 165.584 22.3817C165.584 23.1469 165.361 23.7778 164.916 24.2745C164.484 24.7578 163.895 25.0933 163.149 25.2813V25.4424C165.021 25.7109 165.956 26.7714 165.956 28.6239Z" fill="#4B23EB"/>
<path d="M165.939 32.5511L172.064 18.6572H174.263L180.329 32.5511H177.345L176.403 30.1952H169.827L168.865 32.5511H165.939ZM173.144 22.1206L170.69 28.1211H175.559L173.144 22.1206Z" fill="#4B23EB"/>
<path d="M183.577 18.6572V30.0945H189.918V18.6572H192.587V30.0945H194.728V35.9742H192.175V32.5511H180.907V18.6572H183.577Z" fill="#4B23EB"/>
<path d="M198.229 18.6572V28.1211L205.767 18.6572H207.691V32.5511H205.021V23.1677L197.424 32.5511H195.579V18.6572H198.229Z" fill="#4B23EB"/>
<path d="M220.797 32.5511H218.108V28.2621H214.221L212.061 32.5511H208.999L211.61 27.9601C209.896 27.3157 209.038 25.7787 209.038 23.3489C209.038 21.6709 209.431 20.4694 210.216 19.7446C211.002 19.0197 212.277 18.6572 214.044 18.6572H220.797V32.5511ZM211.748 23.3892C211.748 24.3557 211.937 25.0202 212.317 25.3826C212.696 25.7317 213.344 25.9062 214.26 25.9062H218.108V21.0131H214.299C213.331 21.0131 212.663 21.1809 212.297 21.5166C211.93 21.8387 211.748 22.4629 211.748 23.3892Z" fill="#4B23EB"/>
<path d="M23.9844 8.20124H31.9799V0H23.9844V8.20124Z" fill="#4B23EB"/>
<path d="M7.99316 24.6036H15.9887V16.4023H7.99316V24.6036Z" fill="#4B23EB"/>
<path opacity="0.3" d="M23.9844 16.4014H31.9799V8.2002H23.9844V16.4014Z" fill="#4B23EB"/>
<path opacity="0.3" d="M7.99316 32.8048H15.9887V24.6035H7.99316V32.8048Z" fill="#4B23EB"/>
<path opacity="0.3" d="M15.9883 8.20124H23.9838V0H15.9883V8.20124Z" fill="#4B23EB"/>
<path opacity="0.3" d="M0 24.6036H7.99554V16.4023H0V24.6036Z" fill="#4B23EB"/>
<path fill-rule="evenodd" clip-rule="evenodd" d="M2.46017 0H0V2.52346V13.879H2.46017V2.52346H13.5309V0H2.46017Z" fill="#4B23EB"/>
<path fill-rule="evenodd" clip-rule="evenodd" d="M29.52 32.8048H31.9801V30.2814V18.9258H29.52V30.2814H18.4492V32.8048H29.52Z" fill="#4B23EB"/>
</g>
<defs>
<clipPath id="clip0_4218_37540">
<rect width="220.8" height="36" fill="white"/>
</clipPath>
</defs>
</svg>
