<svg width="944" height="594" viewBox="0 0 944 594" fill="none" xmlns="http://www.w3.org/2000/svg">
<g opacity="0.5">
<path d="M146 1L148 3M150 5L148 3M148 3L150 1L146 5" stroke="#878EA6"/>
<path d="M146 85L148 87M150 89L148 87M148 87L150 85L146 89" stroke="#878EA6"/>
<path d="M146 169L148 171M150 173L148 171M148 171L150 169L146 173" stroke="#878EA6"/>
<path d="M146 253L148 255M150 257L148 255M148 255L150 253L146 257" stroke="#878EA6"/>
<path d="M146 337L148 339M150 341L148 339M148 339L150 337L146 341" stroke="#878EA6"/>
<path d="M146 421L148 423M150 425L148 423M148 423L150 421L146 425" stroke="#878EA6"/>
<path d="M146 505L148 507M150 509L148 507M148 507L150 505L146 509" stroke="#878EA6"/>
<path d="M146 589L148 591M150 593L148 591M148 591L150 589L146 593" stroke="#878EA6"/>
<path d="M579 1L581 3M583 5L581 3M581 3L583 1L579 5" stroke="#878EA6"/>
<path d="M579 85L581 87M583 89L581 87M581 87L583 85L579 89" stroke="#878EA6"/>
<path d="M579 169L581 171M583 173L581 171M581 171L583 169L579 173" stroke="#878EA6"/>
<path d="M579 253L581 255M583 257L581 255M581 255L583 253L579 257" stroke="#878EA6"/>
<path d="M579 337L581 339M583 341L581 339M581 339L583 337L579 341" stroke="#878EA6"/>
<path d="M579 421L581 423M583 425L581 423M581 423L583 421L579 425" stroke="#878EA6"/>
<path d="M579 505L581 507M583 509L581 507M581 507L583 505L579 509" stroke="#878EA6"/>
<path d="M579 589L581 591M583 593L581 591M581 591L583 589L579 593" stroke="#878EA6"/>
<path d="M363 1L365 3M367 5L365 3M365 3L367 1L363 5" stroke="#878EA6"/>
<path d="M363 85L365 87M367 89L365 87M365 87L367 85L363 89" stroke="#878EA6"/>
<path d="M363 169L365 171M367 173L365 171M365 171L367 169L363 173" stroke="#878EA6"/>
<path d="M363 253L365 255M367 257L365 255M365 255L367 253L363 257" stroke="#878EA6"/>
<path d="M363 337L365 339M367 341L365 339M365 339L367 337L363 341" stroke="#878EA6"/>
<path d="M363 421L365 423M367 425L365 423M365 423L367 421L363 425" stroke="#878EA6"/>
<path d="M363 505L365 507M367 509L365 507M365 507L367 505L363 509" stroke="#878EA6"/>
<path d="M363 589L365 591M367 593L365 591M365 591L367 589L363 593" stroke="#878EA6"/>
<path d="M796 1L798 3M800 5L798 3M798 3L800 1L796 5" stroke="#878EA6"/>
<path d="M796 85L798 87M800 89L798 87M798 87L800 85L796 89" stroke="#878EA6"/>
<path d="M796 169L798 171M800 173L798 171M798 171L800 169L796 173" stroke="#878EA6"/>
<path d="M796 253L798 255M800 257L798 255M798 255L800 253L796 257" stroke="#878EA6"/>
<path d="M796 337L798 339M800 341L798 339M798 339L800 337L796 341" stroke="#878EA6"/>
<path d="M796 421L798 423M800 425L798 423M798 423L800 421L796 425" stroke="#878EA6"/>
<path d="M796 505L798 507M800 509L798 507M798 507L800 505L796 509" stroke="#878EA6"/>
<path d="M796 589L798 591M800 593L798 591M798 591L800 589L796 593" stroke="#878EA6"/>
<path d="M255 1L257 3M259 5L257 3M257 3L259 1L255 5" stroke="#878EA6"/>
<path d="M255 85L257 87M259 89L257 87M257 87L259 85L255 89" stroke="#878EA6"/>
<path d="M255 169L257 171M259 173L257 171M257 171L259 169L255 173" stroke="#878EA6"/>
<path d="M255 253L257 255M259 257L257 255M257 255L259 253L255 257" stroke="#878EA6"/>
<path d="M255 337L257 339M259 341L257 339M257 339L259 337L255 341" stroke="#878EA6"/>
<path d="M255 421L257 423M259 425L257 423M257 423L259 421L255 425" stroke="#878EA6"/>
<path d="M255 505L257 507M259 509L257 507M257 507L259 505L255 509" stroke="#878EA6"/>
<path d="M255 589L257 591M259 593L257 591M257 591L259 589L255 593" stroke="#878EA6"/>
<path d="M688 1L690 3M692 5L690 3M690 3L692 1L688 5" stroke="#878EA6"/>
<path d="M688 85L690 87M692 89L690 87M690 87L692 85L688 89" stroke="#878EA6"/>
<path d="M688 169L690 171M692 173L690 171M690 171L692 169L688 173" stroke="#878EA6"/>
<path d="M688 253L690 255M692 257L690 255M690 255L692 253L688 257" stroke="#878EA6"/>
<path d="M688 337L690 339M692 341L690 339M690 339L692 337L688 341" stroke="#878EA6"/>
<path d="M688 421L690 423M692 425L690 423M690 423L692 421L688 425" stroke="#878EA6"/>
<path d="M688 505L690 507M692 509L690 507M690 507L692 505L688 509" stroke="#878EA6"/>
<path d="M688 589L690 591M692 593L690 591M690 591L692 589L688 593" stroke="#878EA6"/>
<path d="M472 1L474 3M476 5L474 3M474 3L476 1L472 5" stroke="#878EA6"/>
<path d="M472 85L474 87M476 89L474 87M474 87L476 85L472 89" stroke="#878EA6"/>
<path d="M472 169L474 171M476 173L474 171M474 171L476 169L472 173" stroke="#878EA6"/>
<path d="M472 253L474 255M476 257L474 255M474 255L476 253L472 257" stroke="#878EA6"/>
<path d="M472 337L474 339M476 341L474 339M474 339L476 337L472 341" stroke="#878EA6"/>
<path d="M472 421L474 423M476 425L474 423M474 423L476 421L472 425" stroke="#878EA6"/>
<path d="M472 505L474 507M476 509L474 507M474 507L476 505L472 509" stroke="#878EA6"/>
<path d="M472 589L474 591M476 593L474 591M474 591L476 589L472 593" stroke="#878EA6"/>
<path d="M905 1L907 3M909 5L907 3M907 3L909 1L905 5" stroke="#878EA6"/>
<path d="M905 85L907 87M909 89L907 87M907 87L909 85L905 89" stroke="#878EA6"/>
<path d="M905 169L907 171M909 173L907 171M907 171L909 169L905 173" stroke="#878EA6"/>
<path d="M905 253L907 255M909 257L907 255M907 255L909 253L905 257" stroke="#878EA6"/>
<path d="M905 337L907 339M909 341L907 339M907 339L909 337L905 341" stroke="#878EA6"/>
<path d="M905 421L907 423M909 425L907 423M907 423L909 421L905 425" stroke="#878EA6"/>
<path d="M905 505L907 507M909 509L907 507M907 507L909 505L905 509" stroke="#878EA6"/>
<path d="M905 589L907 591M909 593L907 591M907 591L909 589L905 593" stroke="#878EA6"/>
<path d="M38 1L40 3M42 5L40 3M40 3L42 1L38 5" stroke="#878EA6"/>
<path d="M38 85L40 87M42 89L40 87M40 87L42 85L38 89" stroke="#878EA6"/>
<path d="M38 169L40 171M42 173L40 171M40 171L42 169L38 173" stroke="#878EA6"/>
<path d="M38 253L40 255M42 257L40 255M40 255L42 253L38 257" stroke="#878EA6"/>
<path d="M38 337L40 339M42 341L40 339M40 339L42 337L38 341" stroke="#878EA6"/>
<path d="M38 421L40 423M42 425L40 423M40 423L42 421L38 425" stroke="#878EA6"/>
<path d="M38 505L40 507M42 509L40 507M40 507L42 505L38 509" stroke="#878EA6"/>
<path d="M38 589L40 591M42 593L40 591M40 591L42 589L38 593" stroke="#878EA6"/>
</g>
</svg>
