<svg width="64" height="64" viewBox="0 0 64 64" fill="none" xmlns="http://www.w3.org/2000/svg">
<path d="M18.6665 49.0007V56.0007H50.6665V49.0007C50.6665 47.3439 49.3234 46.0007 47.6665 46.0007H41.3332H27.9998H21.6665C20.0096 46.0007 18.6665 47.3439 18.6665 49.0007Z" stroke="white" stroke-width="2"/>
<path d="M21.3332 29.3333C21.3332 32.2789 18.9454 34.6667 15.9998 34.6667M21.3332 29.3333C21.3332 26.3878 18.9454 24 15.9998 24M21.3332 29.3333L39.9998 46M15.9998 34.6667C13.0543 34.6667 10.6665 32.2789 10.6665 29.3333C10.6665 26.3878 13.0543 24 15.9998 24M15.9998 34.6667L27.4998 46M15.9998 24L29.3332 12" stroke="white" stroke-width="2"/>
<path d="M32.933 15.2C34.9212 15.2 36.533 13.5882 36.533 11.6C36.533 9.61177 34.9212 8 32.933 8C30.9448 8 29.333 9.61177 29.333 11.6C29.333 13.5882 30.9448 15.2 32.933 15.2ZM32.933 15.2L21.333 28" stroke="white" stroke-width="2"/>
<path d="M43.2921 28.6229L35.9933 21.2767L42.593 14.677L49.8963 22.0279C50.2847 22.4188 50.2837 23.0502 49.894 23.4398L44.7086 28.6252C44.3172 29.0167 43.6822 29.0156 43.2921 28.6229Z" stroke="white" stroke-width="2"/>
<path d="M40 18.666L36 14.666" stroke="white" stroke-width="2"/>
<path d="M49.9997 28.6667L48.7068 29.9596C48.3163 30.3501 47.6831 30.3501 47.2926 29.9596L46.0401 28.7071C45.6496 28.3166 45.6496 27.6834 46.0401 27.2929L48.6259 24.7071C49.0164 24.3166 49.6496 24.3166 50.0401 24.7071L51.2926 25.9596C51.6831 26.3501 51.6831 26.9832 51.2926 27.3738L49.9997 28.6667ZM49.9997 28.6667L53.333 32" stroke="white" stroke-width="2"/>
</svg>
