<svg width="64" height="64" viewBox="0 0 64 64" fill="none" xmlns="http://www.w3.org/2000/svg">
<g clip-path="url(#clip0_2542_850)">
<path d="M14.5899 40.6392C14.0939 39.7668 13.9631 38.7336 14.226 37.7651C14.489 36.7966 15.1243 35.9714 15.9934 35.4696C16.8625 34.9678 17.8948 34.8301 18.8651 35.0866C19.8353 35.3432 20.6647 35.973 21.1722 36.8388L24.7218 42.5394V22.0172C24.7218 21.0093 25.1222 20.0426 25.8349 19.3299C26.5476 18.6172 27.5143 18.2168 28.5222 18.2168C29.5301 18.2168 30.4968 18.6172 31.2095 19.3299C31.9222 20.0426 32.3226 21.0093 32.3226 22.0172V32.6583C32.3226 31.6504 32.723 30.6838 33.4357 29.971C34.1484 29.2583 35.1151 28.8579 36.123 28.8579C37.1309 28.8579 38.0976 29.2583 38.8103 29.971C39.523 30.6838 39.9234 31.6504 39.9234 32.6583V35.6987C39.9234 34.6907 40.3238 33.7241 41.0365 33.0114C41.7492 32.2986 42.7159 31.8982 43.7238 31.8982C44.7317 31.8982 45.6984 32.2986 46.4111 33.0114C47.1238 33.7241 47.5242 34.6907 47.5242 35.6987V42.5394C47.5242 44.5357 47.131 46.5124 46.3671 48.3568C45.6031 50.2011 44.4834 51.8769 43.0718 53.2885C41.6602 54.7001 39.9843 55.8199 38.14 56.5838C36.2957 57.3478 34.3189 57.741 32.3226 57.741C23.9275 57.741 21.7176 53.1805 14.5899 40.6392Z" stroke="white" stroke-width="2" stroke-linecap="round" stroke-linejoin="round"/>
</g>
<g clip-path="url(#clip1_2542_850)">
<path d="M29.154 7.01246C25.9217 6.53709 22.6236 7.16724 19.7942 8.80078C16.9649 10.4343 14.7701 12.9755 13.5656 16.0125" stroke="white" stroke-width="2" stroke-linecap="square" stroke-linejoin="round"/>
<path d="M27.9396 12.9083C26.1529 12.7195 24.3524 13.1017 22.7964 14C21.2405 14.8983 20.0092 16.2666 19.2794 17.9083" stroke="white" stroke-width="2" stroke-linecap="square" stroke-linejoin="round"/>
</g>
<defs>
<clipPath id="clip0_2542_850">
<rect width="48.6452" height="48.6452" fill="white" transform="translate(8 13.6562)"/>
</clipPath>
<clipPath id="clip1_2542_850">
<rect width="32" height="32" fill="white" transform="translate(12.2002 3)"/>
</clipPath>
</defs>
</svg>
