<svg width="128" height="40" viewBox="0 0 128 40" fill="none" xmlns="http://www.w3.org/2000/svg">
<path fill-rule="evenodd" clip-rule="evenodd" d="M5.20127 0C2.38775 0 0.106934 2.28081 0.106934 5.09434V34.9057C0.106934 37.7192 2.38775 40 5.20127 40H35.0126C37.8261 40 40.1069 37.7192 40.1069 34.9057V5.09434C40.1069 2.28081 37.8261 0 35.0126 0H16.5505V19.5105L23.0844 12.4384H30.4947L21.0082 22.5162L30.7736 33.3333H23.4429L16.5505 25.9397V33.3333H10.7736V0H5.20127Z" fill="white"/>
<path d="M121.815 35.6971L124.155 28.4971H125.66L128 35.6971H126.915L124.76 29.1271H125.03L122.9 35.6971H121.815ZM123.03 34.0721V33.0921H126.79V34.0721H123.03Z" fill="white"/>
<path d="M116.016 35.6971V28.4971H117.061V31.8571L120.076 28.4971H121.376L118.191 32.0121L121.611 35.6971H120.271L117.061 32.2571V35.6971H116.016Z" fill="white"/>
<path d="M106.344 35.6971L109.214 32.0121L106.579 28.4971H107.844L110.259 31.7921V28.4971H111.304V31.7921L113.719 28.4971H114.984L112.349 32.0121L115.219 35.6971H113.909L111.304 32.3221V35.6971H110.259V32.3221L107.649 35.6971H106.344Z" fill="white"/>
<path d="M100.674 35.6971V28.4971H103.584C103.654 28.4971 103.741 28.5004 103.844 28.5071C103.948 28.5104 104.046 28.5204 104.139 28.5371C104.539 28.6004 104.873 28.7371 105.139 28.9471C105.409 29.1571 105.611 29.4221 105.744 29.7421C105.878 30.0621 105.944 30.4154 105.944 30.8021C105.944 31.1921 105.878 31.5471 105.744 31.8671C105.611 32.1871 105.409 32.4521 105.139 32.6621C104.873 32.8721 104.539 33.0087 104.139 33.0721C104.046 33.0854 103.946 33.0954 103.839 33.1021C103.736 33.1087 103.651 33.1121 103.584 33.1121H101.719V35.6971H100.674ZM101.719 32.1221H103.544C103.611 32.1221 103.684 32.1187 103.764 32.1121C103.848 32.1054 103.926 32.0937 103.999 32.0771C104.213 32.0271 104.384 31.9354 104.514 31.8021C104.644 31.6654 104.738 31.5087 104.794 31.3321C104.851 31.1554 104.879 30.9787 104.879 30.8021C104.879 30.6254 104.851 30.4504 104.794 30.2771C104.738 30.1004 104.644 29.9454 104.514 29.8121C104.384 29.6754 104.213 29.5821 103.999 29.5321C103.926 29.5121 103.848 29.4987 103.764 29.4921C103.684 29.4854 103.611 29.4821 103.544 29.4821H101.719V32.1221Z" fill="white"/>
<path d="M94.8735 35.6971V28.4971H99.4735V29.4821H95.9185V31.5021H98.8735V32.4871H95.9185V34.7121H99.4735V35.6971H94.8735Z" fill="white"/>
<path d="M87.0378 36.8972V34.7122C87.2845 34.7122 87.4878 34.6505 87.6478 34.5272C87.8078 34.4005 87.9345 34.2289 88.0278 34.0122C88.1245 33.7922 88.1978 33.5422 88.2478 33.2622C88.3012 32.9822 88.3412 32.6872 88.3678 32.3772C88.4078 31.9572 88.4412 31.5472 88.4678 31.1472C88.4978 30.7439 88.5245 30.3272 88.5478 29.8972C88.5745 29.4672 88.6028 28.9989 88.6328 28.4922L93.2428 28.4972V34.7122H93.7778V36.8972H92.7278V35.6972H88.0828V36.8972H87.0378ZM88.7528 34.7122H92.1978V29.4822L89.5978 29.4772C89.5745 29.8439 89.5545 30.1922 89.5378 30.5222C89.5212 30.8522 89.4995 31.1855 89.4728 31.5222C89.4495 31.8555 89.4195 32.2139 89.3828 32.5972C89.3462 32.9639 89.3078 33.2755 89.2678 33.5322C89.2278 33.7855 89.1678 34.0055 89.0878 34.1922C89.0112 34.3789 88.8995 34.5522 88.7528 34.7122Z" fill="white"/>
<path d="M79.5671 36.8972V34.7122C79.8138 34.7122 80.0171 34.6505 80.1771 34.5272C80.3371 34.4005 80.4638 34.2289 80.5571 34.0122C80.6538 33.7922 80.7271 33.5422 80.7771 33.2622C80.8305 32.9822 80.8705 32.6872 80.8971 32.3772C80.9371 31.9572 80.9705 31.5472 80.9971 31.1472C81.0271 30.7439 81.0538 30.3272 81.0771 29.8972C81.1038 29.4672 81.1321 28.9989 81.1621 28.4922L85.7721 28.4972V34.7122H86.3071V36.8972H85.2571V35.6972H80.6121V36.8972H79.5671ZM81.2821 34.7122H84.7271V29.4822L82.1271 29.4772C82.1038 29.8439 82.0838 30.1922 82.0671 30.5222C82.0505 30.8522 82.0288 31.1855 82.0021 31.5222C81.9788 31.8555 81.9488 32.2139 81.9121 32.5972C81.8755 32.9639 81.8371 33.2755 81.7971 33.5322C81.7571 33.7855 81.6971 34.0055 81.6171 34.1922C81.5405 34.3789 81.4288 34.5522 81.2821 34.7122Z" fill="white"/>
<path d="M75.7301 35.8467C75.0101 35.8467 74.3967 35.69 73.8901 35.3767C73.3834 35.06 72.9951 34.62 72.7251 34.0567C72.4584 33.4933 72.3251 32.84 72.3251 32.0967C72.3251 31.3533 72.4584 30.7 72.7251 30.1367C72.9951 29.5733 73.3834 29.135 73.8901 28.8217C74.3967 28.505 75.0101 28.3467 75.7301 28.3467C76.4467 28.3467 77.0584 28.505 77.5651 28.8217C78.0751 29.135 78.4634 29.5733 78.7301 30.1367C78.9967 30.7 79.1301 31.3533 79.1301 32.0967C79.1301 32.84 78.9967 33.4933 78.7301 34.0567C78.4634 34.62 78.0751 35.06 77.5651 35.3767C77.0584 35.69 76.4467 35.8467 75.7301 35.8467ZM75.7301 34.8517C76.2401 34.8583 76.6634 34.7467 77.0001 34.5167C77.3401 34.2833 77.5951 33.96 77.7651 33.5467C77.9351 33.13 78.0201 32.6467 78.0201 32.0967C78.0201 31.5467 77.9351 31.0667 77.7651 30.6567C77.5951 30.2433 77.3401 29.9217 77.0001 29.6917C76.6634 29.4617 76.2401 29.345 75.7301 29.3417C75.2201 29.335 74.7951 29.4467 74.4551 29.6767C74.1184 29.9067 73.8651 30.23 73.6951 30.6467C73.5251 31.0633 73.4384 31.5467 73.4351 32.0967C73.4317 32.6467 73.5151 33.1283 73.6851 33.5417C73.8551 33.9517 74.1101 34.2717 74.4501 34.5017C74.7934 34.7317 75.2201 34.8483 75.7301 34.8517Z" fill="white"/>
<path d="M65.5962 35.6971V28.4971H71.3212V35.6971H70.2762V29.4821H66.6412V35.6971H65.5962Z" fill="white"/>
<path d="M58.6095 35.6971L61.0645 32.0521L58.6745 28.4971H59.9545L61.7095 31.1671L63.4545 28.4971H64.7395L62.3495 32.0521L64.7995 35.6971H63.5195L61.7095 32.9421L59.8945 35.6971H58.6095Z" fill="white"/>
<path d="M53.4087 35.6971V28.4971H58.0087V29.4821H54.4537V31.5021H57.4087V32.4871H54.4537V34.7121H58.0087V35.6971H53.4087Z" fill="white"/>
<path d="M49.1686 35.6971V29.4821H46.7736V28.4971H52.6086V29.4821H50.2136V35.6971H49.1686Z" fill="white"/>
<path d="M103.709 24.0301L106.049 16.8301H107.554L109.894 24.0301H108.809L106.654 17.4601H106.924L104.794 24.0301H103.709ZM104.924 22.4051V21.4251H108.684V22.4051H104.924Z" fill="white"/>
<path d="M97.9106 24.0301V16.8301H98.9556V20.1901L101.971 16.8301H103.271L100.086 20.3451L103.506 24.0301H102.166L98.9556 20.5901V24.0301H97.9106Z" fill="white"/>
<path d="M93.6705 24.0301V17.8151H91.2755V16.8301H97.1105V17.8151H94.7155V24.0301H93.6705Z" fill="white"/>
<path d="M87.6734 24.1807C86.9534 24.1807 86.3401 24.024 85.8334 23.7107C85.3268 23.394 84.9384 22.954 84.6684 22.3907C84.4018 21.8273 84.2684 21.174 84.2684 20.4307C84.2684 19.6873 84.4018 19.034 84.6684 18.4707C84.9384 17.9073 85.3268 17.469 85.8334 17.1557C86.3401 16.839 86.9534 16.6807 87.6734 16.6807C88.3901 16.6807 89.0018 16.839 89.5084 17.1557C90.0184 17.469 90.4068 17.9073 90.6734 18.4707C90.9401 19.034 91.0734 19.6873 91.0734 20.4307C91.0734 21.174 90.9401 21.8273 90.6734 22.3907C90.4068 22.954 90.0184 23.394 89.5084 23.7107C89.0018 24.024 88.3901 24.1807 87.6734 24.1807ZM87.6734 23.1857C88.1834 23.1923 88.6068 23.0807 88.9434 22.8507C89.2834 22.6173 89.5384 22.294 89.7084 21.8807C89.8784 21.464 89.9634 20.9807 89.9634 20.4307C89.9634 19.8807 89.8784 19.4007 89.7084 18.9907C89.5384 18.5773 89.2834 18.2557 88.9434 18.0257C88.6068 17.7957 88.1834 17.679 87.6734 17.6757C87.1634 17.669 86.7384 17.7807 86.3984 18.0107C86.0618 18.2407 85.8084 18.564 85.6384 18.9807C85.4684 19.3973 85.3818 19.8807 85.3784 20.4307C85.3751 20.9807 85.4584 21.4623 85.6284 21.8757C85.7984 22.2857 86.0534 22.6057 86.3934 22.8357C86.7368 23.0657 87.1634 23.1823 87.6734 23.1857Z" fill="white"/>
<path d="M78.3989 24.0301V16.8301H83.0939V17.8151H79.4439V19.5501H81.3089C81.3756 19.5501 81.4606 19.5534 81.5639 19.5601C81.6706 19.5634 81.7706 19.5717 81.8639 19.5851C82.2539 19.6317 82.5823 19.7584 82.8489 19.9651C83.1189 20.1717 83.3223 20.4334 83.4589 20.7501C83.5989 21.0667 83.6689 21.4134 83.6689 21.7901C83.6689 22.1667 83.6006 22.5134 83.4639 22.8301C83.3273 23.1467 83.1239 23.4084 82.8539 23.6151C82.5873 23.8217 82.2573 23.9484 81.8639 23.9951C81.7706 24.0084 81.6723 24.0184 81.5689 24.0251C81.4656 24.0284 81.3789 24.0301 81.3089 24.0301H78.3989ZM79.4439 23.0451H81.2689C81.3356 23.0451 81.4089 23.0417 81.4889 23.0351C81.5723 23.0284 81.6506 23.0184 81.7239 23.0051C82.0473 22.9384 82.2739 22.7851 82.4039 22.5451C82.5373 22.3051 82.6039 22.0534 82.6039 21.7901C82.6039 21.5234 82.5373 21.2717 82.4039 21.0351C82.2739 20.7951 82.0473 20.6417 81.7239 20.5751C81.6506 20.5584 81.5723 20.5484 81.4889 20.5451C81.4089 20.5384 81.3356 20.5351 81.2689 20.5351H79.4439V23.0451Z" fill="white"/>
<path d="M71.3169 24.0301L73.6569 16.8301H75.1619L77.5019 24.0301H76.4169L74.2619 17.4601H74.5319L72.4019 24.0301H71.3169ZM72.5319 22.4051V21.4251H76.2919V22.4051H72.5319Z" fill="white"/>
<path d="M65.9478 24.0301V16.8301H68.8578C68.9278 16.8301 69.0144 16.8334 69.1178 16.8401C69.2211 16.8434 69.3194 16.8534 69.4128 16.8701C69.8128 16.9334 70.1461 17.0701 70.4128 17.2801C70.6828 17.4901 70.8844 17.7551 71.0178 18.0751C71.1511 18.3951 71.2178 18.7484 71.2178 19.1351C71.2178 19.5251 71.1511 19.8801 71.0178 20.2001C70.8844 20.5201 70.6828 20.7851 70.4128 20.9951C70.1461 21.2051 69.8128 21.3417 69.4128 21.4051C69.3194 21.4184 69.2194 21.4284 69.1128 21.4351C69.0094 21.4417 68.9244 21.4451 68.8578 21.4451H66.9928V24.0301H65.9478ZM66.9928 20.4551H68.8178C68.8844 20.4551 68.9578 20.4517 69.0378 20.4451C69.1211 20.4384 69.1994 20.4267 69.2728 20.4101C69.4861 20.3601 69.6578 20.2684 69.7878 20.1351C69.9178 19.9984 70.0111 19.8417 70.0678 19.6651C70.1244 19.4884 70.1528 19.3117 70.1528 19.1351C70.1528 18.9584 70.1244 18.7834 70.0678 18.6101C70.0111 18.4334 69.9178 18.2784 69.7878 18.1451C69.6578 18.0084 69.4861 17.9151 69.2728 17.8651C69.1994 17.8451 69.1211 17.8317 69.0378 17.8251C68.9578 17.8184 68.8844 17.8151 68.8178 17.8151H66.9928V20.4551Z" fill="white"/>
<path d="M62.0944 24.1807C61.5944 24.1807 61.1594 24.1073 60.7894 23.9607C60.4194 23.814 60.1094 23.624 59.8594 23.3907C59.6128 23.154 59.4244 22.9023 59.2944 22.6357L60.2044 22.0457C60.2844 22.2423 60.4044 22.4273 60.5644 22.6007C60.7278 22.774 60.9378 22.9157 61.1944 23.0257C61.4544 23.1323 61.7694 23.1857 62.1394 23.1857C62.5094 23.1857 62.8144 23.1307 63.0544 23.0207C63.2944 22.9073 63.4728 22.7573 63.5894 22.5707C63.7094 22.3807 63.7694 22.1673 63.7694 21.9307C63.7694 21.654 63.6961 21.4407 63.5494 21.2907C63.4061 21.1373 63.2144 21.0307 62.9744 20.9707C62.7344 20.9073 62.4744 20.8707 62.1944 20.8607C61.9611 20.854 61.7928 20.849 61.6894 20.8457C61.5861 20.839 61.5161 20.8357 61.4794 20.8357C61.4461 20.8357 61.4144 20.8357 61.3844 20.8357V19.8457C61.4211 19.8457 61.4844 19.8457 61.5744 19.8457C61.6678 19.8457 61.7644 19.8457 61.8644 19.8457C61.9644 19.8423 62.0461 19.839 62.1094 19.8357C62.5228 19.8157 62.8561 19.714 63.1094 19.5307C63.3661 19.3473 63.4944 19.0873 63.4944 18.7507C63.4944 18.414 63.3694 18.149 63.1194 17.9557C62.8728 17.7623 62.5478 17.6657 62.1444 17.6657C61.7611 17.6657 61.4311 17.754 61.1544 17.9307C60.8778 18.104 60.6644 18.319 60.5144 18.5757L59.7444 17.8507C59.9844 17.5173 60.3128 17.239 60.7294 17.0157C61.1461 16.7923 61.6278 16.6807 62.1744 16.6807C62.4844 16.6807 62.7844 16.7223 63.0744 16.8057C63.3644 16.8857 63.6244 17.009 63.8544 17.1757C64.0844 17.3423 64.2661 17.554 64.3994 17.8107C64.5361 18.064 64.6044 18.3657 64.6044 18.7157C64.6044 19.0657 64.5328 19.3823 64.3894 19.6657C64.2494 19.949 64.0611 20.174 63.8244 20.3407C64.1544 20.464 64.4128 20.659 64.5994 20.9257C64.7861 21.189 64.8794 21.5257 64.8794 21.9357C64.8794 22.3957 64.7578 22.794 64.5144 23.1307C64.2744 23.464 63.9444 23.7223 63.5244 23.9057C63.1078 24.089 62.6311 24.1807 62.0944 24.1807Z" fill="white"/>
<path d="M52.7427 24.0301L55.0827 16.8301H56.5877L58.9277 24.0301H57.8427L55.6877 17.4601H55.9577L53.8277 24.0301H52.7427ZM53.9577 22.4051V21.4251H57.7177V22.4051H53.9577Z" fill="white"/>
<path d="M47.3735 24.0301V16.8301H50.2835C50.3535 16.8301 50.4402 16.8334 50.5435 16.8401C50.6469 16.8434 50.7452 16.8534 50.8385 16.8701C51.2385 16.9334 51.5719 17.0701 51.8385 17.2801C52.1085 17.4901 52.3102 17.7551 52.4435 18.0751C52.5769 18.3951 52.6435 18.7484 52.6435 19.1351C52.6435 19.5251 52.5769 19.8801 52.4435 20.2001C52.3102 20.5201 52.1085 20.7851 51.8385 20.9951C51.5719 21.2051 51.2385 21.3417 50.8385 21.4051C50.7452 21.4184 50.6452 21.4284 50.5385 21.4351C50.4352 21.4417 50.3502 21.4451 50.2835 21.4451H48.4185V24.0301H47.3735ZM48.4185 20.4551H50.2435C50.3102 20.4551 50.3835 20.4517 50.4635 20.4451C50.5469 20.4384 50.6252 20.4267 50.6985 20.4101C50.9119 20.3601 51.0835 20.2684 51.2135 20.1351C51.3435 19.9984 51.4369 19.8417 51.4935 19.6651C51.5502 19.4884 51.5785 19.3117 51.5785 19.1351C51.5785 18.9584 51.5502 18.7834 51.4935 18.6101C51.4369 18.4334 51.3435 18.2784 51.2135 18.1451C51.0835 18.0084 50.9119 17.9151 50.6985 17.8651C50.6252 17.8451 50.5469 17.8317 50.4635 17.8251C50.3835 17.8184 50.3102 17.8151 50.2435 17.8151H48.4185V20.4551Z" fill="white"/>
<path d="M81.8657 12.3631V5.16309H82.9107V8.26809H86.5107V5.16309H87.5607V12.3631H86.5107V9.25309H82.9107V12.3631H81.8657Z" fill="white"/>
<path d="M74.8052 12.3635V5.16352H75.8652V10.5135L79.4102 5.16352H80.4702V12.3635H79.4102V7.00852L75.8652 12.3635H74.8052ZM77.6552 4.54352C77.3885 4.54352 77.1468 4.47852 76.9302 4.34852C76.7135 4.21852 76.5402 4.04518 76.4102 3.82852C76.2802 3.61185 76.2152 3.37018 76.2152 3.10352H77.0452C77.0452 3.27018 77.1052 3.41352 77.2252 3.53352C77.3452 3.65352 77.4885 3.71352 77.6552 3.71352C77.8252 3.71352 77.9685 3.65352 78.0852 3.53352C78.2052 3.41352 78.2652 3.27018 78.2652 3.10352H79.0952C79.0952 3.37018 79.0302 3.61185 78.9002 3.82852C78.7702 4.04518 78.5952 4.21852 78.3752 4.34852C78.1585 4.47852 77.9185 4.54352 77.6552 4.54352Z" fill="white"/>
<path d="M67.7231 12.3631L70.0631 5.16309H71.5681L73.9081 12.3631H72.8231L70.6681 5.79309H70.9381L68.8081 12.3631H67.7231ZM68.9381 10.7381V9.75809H72.6981V10.7381H68.9381Z" fill="white"/>
<path d="M64.3698 12.5137C63.8698 12.5137 63.4348 12.4403 63.0648 12.2937C62.6948 12.147 62.3848 11.957 62.1348 11.7237C61.8882 11.487 61.6998 11.2353 61.5698 10.9687L62.4798 10.3787C62.5598 10.5753 62.6798 10.7603 62.8398 10.9337C63.0032 11.107 63.2132 11.2487 63.4698 11.3587C63.7298 11.4653 64.0448 11.5187 64.4148 11.5187C64.7848 11.5187 65.0898 11.4637 65.3298 11.3537C65.5698 11.2403 65.7482 11.0903 65.8648 10.9037C65.9848 10.7137 66.0448 10.5003 66.0448 10.2637C66.0448 9.987 65.9715 9.77367 65.8248 9.62367C65.6815 9.47034 65.4898 9.36367 65.2498 9.30367C65.0098 9.24034 64.7498 9.20367 64.4698 9.19367C64.2365 9.18701 64.0682 9.182 63.9648 9.17867C63.8615 9.172 63.7915 9.16867 63.7548 9.16867C63.7215 9.16867 63.6898 9.16867 63.6598 9.16867V8.17867C63.6965 8.17867 63.7598 8.17867 63.8498 8.17867C63.9432 8.17867 64.0398 8.17867 64.1398 8.17867C64.2398 8.17534 64.3215 8.172 64.3848 8.16867C64.7982 8.14867 65.1315 8.04701 65.3848 7.86367C65.6415 7.68034 65.7698 7.42034 65.7698 7.08367C65.7698 6.74701 65.6448 6.48201 65.3948 6.28867C65.1482 6.09534 64.8232 5.99867 64.4198 5.99867C64.0365 5.99867 63.7065 6.08701 63.4298 6.26367C63.1532 6.437 62.9398 6.652 62.7898 6.90867L62.0198 6.18367C62.2598 5.85034 62.5882 5.572 63.0048 5.34867C63.4215 5.12534 63.9032 5.01367 64.4498 5.01367C64.7598 5.01367 65.0598 5.05534 65.3498 5.13867C65.6398 5.21867 65.8998 5.342 66.1298 5.50867C66.3598 5.67534 66.5415 5.887 66.6748 6.14367C66.8115 6.397 66.8798 6.69867 66.8798 7.04867C66.8798 7.39867 66.8082 7.71534 66.6648 7.99867C66.5248 8.28201 66.3365 8.507 66.0998 8.67367C66.4298 8.797 66.6882 8.99201 66.8748 9.25867C67.0615 9.52201 67.1548 9.85867 67.1548 10.2687C67.1548 10.7287 67.0332 11.127 66.7898 11.4637C66.5498 11.797 66.2198 12.0553 65.7998 12.2387C65.3832 12.422 64.9065 12.5137 64.3698 12.5137Z" fill="white"/>
<path d="M60.5092 12.3631H59.4492V7.00809L55.9042 12.3631H54.8442V5.16309H55.9042V10.5131L59.4492 5.16309H60.5092V12.3631Z" fill="white"/>
<path d="M47.0085 13.5632V11.3782C47.2552 11.3782 47.4585 11.3165 47.6185 11.1932C47.7785 11.0665 47.9052 10.8949 47.9985 10.6782C48.0952 10.4582 48.1685 10.2082 48.2185 9.9282C48.2719 9.6482 48.3119 9.3532 48.3385 9.0432C48.3785 8.6232 48.4119 8.2132 48.4385 7.8132C48.4685 7.40987 48.4952 6.9932 48.5185 6.5632C48.5452 6.1332 48.5735 5.66487 48.6035 5.1582L53.2135 5.1632V11.3782H53.7485V13.5632H52.6985V12.3632H48.0535V13.5632H47.0085ZM48.7235 11.3782H52.1685V6.1482L49.5685 6.1432C49.5452 6.50987 49.5252 6.8582 49.5085 7.1882C49.4919 7.5182 49.4702 7.85154 49.4435 8.1882C49.4202 8.52154 49.3902 8.87987 49.3535 9.2632C49.3169 9.62987 49.2785 9.94154 49.2385 10.1982C49.1985 10.4515 49.1385 10.6715 49.0585 10.8582C48.9819 11.0449 48.8702 11.2182 48.7235 11.3782Z" fill="white"/>
</svg>
