<svg width="107" height="30" viewBox="0 0 107 30" fill="none" xmlns="http://www.w3.org/2000/svg">
<g clip-path="url(#clip0_3366_17154)">
<path d="M16.1173 7.09675C16.1173 5.48376 15.2851 4.22063 12.8483 4.22063H4.47332V13.925H6.79625V10.5109H12.1593C13.3636 10.5109 13.6793 10.8333 13.6793 11.9622V13.925H16.0022V11.6133C16.0022 10.4602 15.5659 9.78366 14.5961 9.55324C15.6053 9.23402 16.1173 8.31971 16.1173 7.09675ZM12.5325 8.46769H6.79625V6.26383H12.5314C13.3918 6.26383 13.7932 6.69403 13.7932 7.33881C13.7943 7.98358 13.4504 8.46769 12.5325 8.46769ZM105.966 16.076H106.826V25.7804H104.503V18.8982L99.7144 25.7804H97.0475V16.076H99.3704V22.7172L102.869 17.6351C103.758 16.3445 104.533 16.076 105.966 16.076ZM60.6261 13.925V11.8554C61.5722 11.8554 61.8022 11.3174 62.0029 9.51624L62.6344 4.22063H70.9507V13.925H68.6278V6.26383H64.6224L64.212 9.97393C63.8669 13.1724 62.949 14.0328 60.6261 13.925ZM0 30H20.4767V0H0V30ZM2.23722 2.0971H18.2395V27.904H2.23722V2.0971ZM13.6793 16.076H16.0022V25.7804H8.57452C5.59193 25.7804 4.47332 24.7319 4.47332 21.9361V16.076H6.79625V21.99C6.79625 23.2267 7.3127 23.7372 8.51701 23.7372H13.6793V16.076ZM75.4522 10.6726H80.5852V13.925H82.9081V4.22063H76.9429C74.0179 4.22063 73.1282 4.97322 73.1282 7.79543V13.925H75.4511V10.6726H75.4522ZM76.9441 6.26383H80.5863V8.65584H75.4533V7.79543C75.4522 6.69403 75.5965 6.26383 76.9441 6.26383ZM49.2404 10.3492V7.79543C49.2404 4.99965 50.0726 4.22063 53.054 4.22063H59.1342V6.26383H52.9401C51.7358 6.26383 51.5633 6.45198 51.5633 7.68868V8.01106H57.4428V10.0268H51.5633V10.457C51.5633 11.6937 51.7358 11.8818 52.9401 11.8818H59.221V13.925H53.0551C50.0726 13.925 49.2404 13.1185 49.2404 10.3492ZM103.184 4.22063H100.632C97.6778 4.22063 96.8186 5.0007 96.8186 7.79543V10.3492C96.8186 13.1185 97.9654 13.924 100.92 13.924H102.899C105.881 13.924 107 13.1175 107 10.3492V7.79543C106.999 4.99965 106.167 4.22063 103.184 4.22063ZM104.676 10.3492C104.676 11.5859 104.39 11.8818 103.185 11.8818H100.633C99.4291 11.8818 99.1426 11.5859 99.1426 10.3492V7.79543C99.1426 6.55873 99.4291 6.26277 100.633 6.26277H103.185C104.39 6.26277 104.676 6.55873 104.676 7.79543V10.3492ZM64.8987 16.076H71.2653V17.2852C71.2653 18.2535 71.1796 19.06 70.9496 19.7851H68.9706V18.1182H64.8987C63.6944 18.1182 63.4079 18.4141 63.4079 19.6508V22.2046C63.4079 23.4413 63.6944 23.7372 64.8987 23.7372H71.2653V25.7804H64.8987C61.9443 25.7804 61.0839 24.9739 61.0839 22.2056V19.6519C61.085 16.855 61.9454 16.076 64.8987 16.076ZM46.631 4.22063H38.1704L37.6539 9.13995C37.3957 11.4791 37.0225 11.8554 36.3346 11.8554H36.1914V14.8393H38.3993L38.485 13.6026H45.3106L45.3963 14.8393H47.6042V11.8279H46.6288V4.22063H46.631ZM40.2125 6.26383H44.3081V11.5869H39.3397C39.6577 11.0669 39.7908 10.3418 39.8923 9.40948L40.2125 6.26383ZM55.6363 16.076H52.8826C49.9282 16.076 49.0678 16.8561 49.0678 19.6508V22.2046C49.0678 24.9739 49.9282 25.7794 52.8826 25.7794H55.6363C58.6189 25.7794 59.45 24.9729 59.45 22.2046V19.6508C59.45 16.855 58.6189 16.076 55.6363 16.076ZM57.127 22.2046C57.127 23.4413 56.8406 23.7372 55.6363 23.7372H52.8826C51.6783 23.7372 51.3919 23.4413 51.3919 22.2046V19.6508C51.3919 18.4141 51.6783 18.1182 52.8826 18.1182H55.6363C56.8406 18.1182 57.127 18.4141 57.127 19.6508V22.2046ZM76.714 16.076H83.1088V17.2852C83.1088 18.2535 83.0231 19.06 82.7931 19.7851H80.8141V18.1182H76.7129C75.5086 18.1182 75.2222 18.4141 75.2222 19.6508V22.2046C75.2222 23.4413 75.5086 23.7372 76.7129 23.7372H83.1077V25.7804H76.7129C73.7585 25.7804 72.8992 24.9739 72.8992 22.2056V19.6519C72.9004 16.855 73.7607 16.076 76.714 16.076ZM33.2449 20.6518C33.7895 20.34 34.2417 19.6783 34.2417 18.6562C34.2417 17.3392 33.4388 16.076 31.0584 16.076H24.9782V25.7804H31.2873C33.582 25.7804 34.6995 24.678 34.6995 22.8768C34.7007 21.6655 33.9587 20.952 33.2449 20.6518ZM31.9188 18.9786C31.9188 19.5705 31.6031 19.8929 30.8002 19.8929H27.3011V18.1457H30.8002C31.6031 18.1457 31.9188 18.4141 31.9188 18.9786ZM31.3166 23.7372H27.3011V21.8558H31.3166C32.0913 21.8558 32.3777 22.2056 32.3777 22.7701C32.3777 23.3335 32.0913 23.7372 31.3166 23.7372ZM92.5449 4.22063H94.8678V13.925H92.5449V10.0268H87.4119V13.925H85.089V4.22063H87.4119V7.98464H92.5449V4.22063ZM28.4491 4.22063H34.7875V5.42985C34.7875 6.39807 34.7018 7.20457 34.4718 7.92967H32.4928V6.26383H28.4491C27.2447 6.26383 26.9583 6.55979 26.9583 7.79649V10.3502C26.9583 11.5869 27.2447 11.8829 28.4491 11.8829H34.7875V13.9261H28.4491C25.4947 13.9261 24.6354 13.1196 24.6354 10.3513V7.79543C24.6343 4.99965 25.4947 4.22063 28.4491 4.22063ZM94.0074 16.076H94.8678V25.7804H92.5449V18.8982L87.7558 25.7804H85.089V16.076H87.4119V22.7172L90.9109 17.6351C91.7995 16.3445 92.5742 16.076 94.0074 16.076ZM44.0217 16.076H37.2536V17.985L38.4579 18.1467V25.7815H40.7809V23.2817H44.0217C46.6885 23.2817 47.6064 22.0185 47.6064 20.0557V19.3031C47.6064 17.447 46.746 16.076 44.0217 16.076ZM45.3117 19.9732C45.3117 20.8875 44.9384 21.2363 44.0217 21.2363H40.7809V18.1182H44.0217C44.9396 18.1182 45.3117 18.5484 45.3117 19.3813V19.9732Z" fill="#4B23EB"/>
</g>
<defs>
<clipPath id="clip0_3366_17154">
<rect width="107" height="30" fill="white"/>
</clipPath>
</defs>
</svg>
