<svg width="52" height="52" viewBox="0 0 52 52" fill="none" xmlns="http://www.w3.org/2000/svg">
<path d="M0 8C0 3.58172 3.58172 0 8 0H44C48.4183 0 52 3.58172 52 8V44C52 48.4183 48.4183 52 44 52H8C3.58172 52 0 48.4183 0 44V8Z" fill="white"/>
<path fill-rule="evenodd" clip-rule="evenodd" d="M17.9968 38.0051H15.329C14.5927 38.0051 13.9951 37.4075 13.9951 36.6712V28.6679C13.9951 27.9316 14.5927 27.334 15.329 27.334H17.9968C18.7331 27.334 19.3307 27.9316 19.3307 28.6679V36.6712C19.3307 37.4075 18.7331 38.0051 17.9968 38.0051Z" stroke="#4B23EB" stroke-width="1.5" stroke-linecap="round" stroke-linejoin="round"/>
<path d="M27.3344 32.6708H30.4464C31.0239 32.6708 31.5855 32.484 32.047 32.1372L35.2697 29.7202C36.074 29.1173 37.1998 29.1973 37.9108 29.9083V29.9083C38.7005 30.6979 38.7005 31.9771 37.9108 32.7655L35.1456 35.5306C34.4013 36.2749 33.4516 36.7831 32.4192 36.9899L28.5109 37.7715C27.7359 37.9263 26.9369 37.9076 26.1699 37.7155L22.6351 36.8325C22.2123 36.7258 21.7787 36.6724 21.3426 36.6724H19.3311" stroke="#4B23EB" stroke-width="1.5" stroke-linecap="round" stroke-linejoin="round"/>
<path d="M27.3344 32.6695H29.3152C30.4317 32.6695 31.3361 31.7652 31.3361 30.6487V30.2445C31.3361 29.3175 30.7051 28.5091 29.8061 28.285L26.7488 27.5207C26.2513 27.3967 25.7417 27.334 25.2295 27.334V27.334C23.993 27.334 22.7832 27.6995 21.7547 28.3864L19.3311 30.0018" stroke="#4B23EB" stroke-width="1.5" stroke-linecap="round" stroke-linejoin="round"/>
<path d="M27.9327 15.562L21.7634 15.566C21.4099 15.566 21.0711 15.7074 20.8217 15.9568L19.7212 17.0573C19.1997 17.5788 19.1997 18.4232 19.7212 18.9434L20.8257 20.0479C21.0751 20.2973 21.4153 20.4387 21.7688 20.4374L27.9367 20.4333L27.9513 20.4347C28.8357 22.1514 30.6058 23.3359 32.672 23.3332C35.6172 23.3252 38.0049 20.9309 38.0049 17.987C38.0062 15.0418 35.6212 12.6594 32.676 12.6621C30.6178 12.6674 28.8517 13.8533 27.9633 15.5633" stroke="#4B23EB" stroke-width="1.5" stroke-linecap="round" stroke-linejoin="round"/>
<path d="M32.6722 18.3491C32.8643 18.3491 33.019 18.193 33.019 18.0009C33.019 17.8088 32.8616 17.6528 32.6709 17.6528C32.4788 17.6528 32.3227 17.8088 32.3227 18.0009C32.3227 18.193 32.4788 18.3491 32.6722 18.3491" stroke="#4B23EB" stroke-width="1.5" stroke-linecap="round" stroke-linejoin="round"/>
</svg>
